# xmcd CD database file
#
# Track frame offsets:
#	150
#	12520
#	26158
#	40760
#	53853
#	68780
#	83778
#	97513
#	110083
#	123698
#	139045
#	153108
#	171868
#	184315
#	195370
#	208860
#	223900
#	237268
#	251988
#	266638
#	279183
#	293180
#	306435
#
# Disc length: 4281 seconds
#
# Revision: 1
# Processed by: cddbd v1.5.2PL0 Copyright (c) Steve Scherf et al.
# Submitted via: CDex 1.51
#
DISCID=5810b717
DTITLE=Charlie Christian - Vol. 49 - Genius of Electric Guitar
DYEAR=1950
DGENRE=Jazz
TTITLE0=Seven Come Eleven
TTITLE1=Till Tom Special
TTITLE2=Gone with "What" Wind
TTITLE3=Good Enough to Keep (Air Mail Special)
TTITLE4=A Smo-o-o-oth-one
TTITLE5=Six Appeal
TTITLE6=Royal Garden Blues
TTITLE7=AC-DC Current
TTITLE8=Wholly Cats
TTITLE9=As Long As I Live
TTITLE10=Breakfast Feud
TTITLE11=Profoundly Blue
TTITLE12=Solo Flight
TTITLE13=Soft Winds
TTITLE14=Honeysuckle Rose
TTITLE15=I Can't Give You Anything But Love
TTITLE16=I Never Knew
TTITLE17=Lester's Dream
TTITLE18=Flying Home
TTITLE19=Poor Butterfly
TTITLE20=Benny's Bugle
TTITLE21=I Found a New Baby
TTITLE22=Stardust
EXTD=YEAR: 1950
EXTT0=\t
EXTT1=
EXTT2=
EXTT3=
EXTT4=
EXTT5=
EXTT6=\t\t
EXTT7=
EXTT8=
EXTT9=
EXTT10=
EXTT11=
EXTT12=
EXTT13=
EXTT14=
EXTT15=
EXTT16=
EXTT17=
EXTT18=
EXTT19=
EXTT20=
EXTT21=
EXTT22=
PLAYORDER=
